<?xml version="1.0" standalone="no"?>
<!DOCTYPE svg PUBLIC "-//W3C//DTD SVG 20010904//EN"
 "http://www.w3.org/TR/2001/REC-SVG-20010904/DTD/svg10.dtd">
<svg version="1.0" xmlns="http://www.w3.org/2000/svg"
 width="160.000000pt" height="160.000000pt" viewBox="0 0 160.000000 160.000000"
 preserveAspectRatio="xMidYMid meet">

<g transform="translate(0.000000,160.000000) scale(0.100000,-0.100000)"
fill="#000000" stroke="none">
<path d="M1099 1418 l-14 -73 -48 -12 c-75 -18 -76 -19 -14 -32 32 -7 60 -18
62 -24 2 -7 10 -41 18 -77 l13 -65 13 60 c20 96 17 93 76 105 30 6 55 13 55
15 0 2 -25 9 -55 15 -59 12 -57 10 -75 103 -6 31 -13 57 -14 57 -2 0 -10 -33
-17 -72z"/>
<path d="M620 1425 c-109 -24 -224 -88 -310 -175 -253 -252 -253 -648 0 -900
252 -253 648 -253 900 0 155 155 220 370 176 581 -18 84 -54 169 -72 169 -8 0
-14 -3 -14 -7 -3 -147 -8 -181 -33 -237 -28 -61 -25 -93 7 -67 18 15 56 112
56 144 1 21 1 21 11 3 6 -10 14 -56 17 -101 10 -172 -51 -330 -177 -455 -87
-87 -164 -131 -277 -160 -98 -25 -190 -25 -288 0 -111 28 -189 73 -276 160
-87 86 -131 162 -160 276 -77 300 98 615 393 709 43 14 90 25 105 24 l27 0
-25 -17 c-14 -9 -43 -34 -65 -54 -31 -29 -37 -39 -28 -49 9 -9 23 -3 61 29 55
46 144 92 180 92 27 0 41 28 21 41 -21 13 -155 9 -229 -6z"/>
<path d="M542 1214 c4 -21 22 -23 26 -1 2 10 -3 17 -13 17 -10 0 -15 -6 -13
-16z"/>
<path d="M504 1149 c-10 -17 13 -36 27 -22 12 12 4 33 -11 33 -5 0 -12 -5 -16
-11z"/>
<path d="M492 1064 c4 -21 22 -23 26 -1 2 10 -3 17 -13 17 -10 0 -15 -6 -13
-16z"/>
<path d="M826 1029 c-7 -42 -11 -47 -44 -56 l-37 -9 37 -8 c33 -7 37 -11 45
-54 l10 -47 9 44 c8 38 14 46 44 56 l35 12 -33 7 c-18 5 -35 13 -37 19 -1 7
-7 28 -12 47 l-10 35 -7 -46z"/>
<path d="M484 989 c-10 -17 13 -36 27 -22 12 12 4 33 -11 33 -5 0 -12 -5 -16
-11z"/>
<path d="M502 904 c4 -21 22 -23 26 -1 2 10 -3 17 -13 17 -10 0 -15 -6 -13
-16z"/>
<path d="M527 835 c-8 -18 11 -31 25 -17 11 11 3 32 -12 32 -4 0 -10 -7 -13
-15z"/>
<path d="M572 764 c4 -21 22 -23 26 -1 2 10 -3 17 -13 17 -10 0 -15 -6 -13
-16z"/>
<path d="M1200 735 c0 -8 7 -15 15 -15 8 0 15 7 15 15 0 8 -7 15 -15 15 -8 0
-15 -7 -15 -15z"/>
<path d="M624 709 c-3 -6 -2 -15 2 -19 12 -12 38 5 30 19 -9 14 -23 14 -32 0z"/>
<path d="M1142 684 c4 -21 22 -23 26 -1 2 10 -3 17 -13 17 -10 0 -15 -6 -13
-16z"/>
<path d="M696 673 c-12 -12 -6 -33 9 -33 8 0 15 6 15 14 0 17 -14 28 -24 19z"/>
<path d="M1074 649 c-3 -6 -1 -16 5 -22 9 -9 14 -8 21 3 9 15 4 30 -10 30 -5
0 -12 -5 -16 -11z"/>
<path d="M762 624 c4 -21 22 -23 26 -1 2 10 -3 17 -13 17 -10 0 -15 -6 -13
-16z"/>
<path d="M996 621 c-7 -11 18 -33 27 -24 4 3 7 12 7 20 0 15 -26 18 -34 4z"/>
<path d="M840 605 c0 -8 7 -15 15 -15 8 0 15 7 15 15 0 8 -7 15 -15 15 -8 0
-15 -7 -15 -15z"/>
<path d="M920 600 c0 -13 5 -20 13 -17 6 2 12 10 12 17 0 7 -6 15 -12 18 -8 2
-13 -5 -13 -18z"/>
<path d="M1366 289 c-7 -42 -11 -47 -44 -56 l-37 -9 37 -8 c33 -7 37 -11 45
-54 l10 -47 9 44 c8 38 14 46 44 56 l35 12 -33 7 c-18 5 -35 13 -37 19 -1 7
-7 28 -12 47 l-10 35 -7 -46z"/>
</g>
</svg>
